<svg width="48" height="65" viewBox="0 0 48 65" fill="none" xmlns="http://www.w3.org/2000/svg">
<path d="M31.4767 33.3975L31.4766 33.3973L28.8969 25.5284C28.6075 24.6465 27.3928 24.6465 27.1034 25.5284L24.5237 33.3973L24.5237 33.3974C23.9323 35.1996 22.9358 36.8379 21.6123 38.1821C20.2889 39.5265 18.6748 40.5399 16.8977 41.1414L16.8976 41.1415L9.15038 43.7618L9.14831 43.7625C8.96062 43.8251 8.79575 43.9467 8.67817 44.1116C8.56051 44.2766 8.49657 44.4761 8.49657 44.6816C8.49657 44.8871 8.56051 45.0866 8.67817 45.2516C8.79575 45.4165 8.96062 45.5381 9.14831 45.6007L9.15038 45.6014L16.8976 48.2217L16.8977 48.2218C18.6748 48.8234 20.2889 49.8368 21.6123 51.1811C22.9358 52.5253 23.9323 54.1636 24.5237 55.9658L24.5237 55.9659L27.1034 63.835L27.1041 63.837C27.167 64.0317 27.2884 64.1999 27.4495 64.3184C27.6105 64.4369 27.8032 64.5 28.0001 64.5C28.1971 64.5 28.3898 64.4369 28.5508 64.3184C28.7119 64.1999 28.8333 64.0317 28.8962 63.837L28.8969 63.8349L31.4766 55.97C32.0673 54.1671 33.0636 52.528 34.3871 51.1829C35.7106 49.8378 37.325 48.8238 39.1026 48.2218L39.1027 48.2217L46.8498 45.6015C47.7167 45.3079 47.7168 44.0554 46.8498 43.7618L31.4767 33.3975ZM31.4767 33.3975C32.0684 35.2001 33.0656 36.8387 34.3898 38.183C35.714 39.5273 37.3288 40.5404 39.1067 41.1415C39.1067 41.1415 39.1068 41.1415 39.1068 41.1415L46.8498 43.7618L31.4767 33.3975ZM11.6531 4.81347L11.6533 4.81266C11.6786 4.73528 11.7267 4.66934 11.7895 4.62329C11.8521 4.57734 11.9264 4.55324 12.0019 4.55324C12.0773 4.55324 12.1516 4.57734 12.2143 4.62329C12.277 4.66933 12.3252 4.73528 12.3504 4.81266L12.3507 4.81347L13.8985 9.53411L13.8986 9.53451C14.6389 11.786 16.3777 13.5544 18.6005 14.3084L18.6009 14.3085L23.2484 15.8807L23.2492 15.881C23.3214 15.9053 23.3857 15.9526 23.4319 16.0176C23.4782 16.0827 23.5037 16.1619 23.5037 16.244C23.5037 16.3261 23.4782 16.4053 23.4319 16.4704C23.3857 16.5354 23.3214 16.5827 23.2492 16.607L23.2484 16.6072L18.6014 18.1793C17.5043 18.5491 16.508 19.1738 15.6917 20.003C14.8755 20.832 14.2617 21.8426 13.8985 22.9539C13.8984 22.954 13.8984 22.9542 13.8983 22.9543L12.3507 27.6745L12.3504 27.6753C12.3252 27.7527 12.277 27.8186 12.2143 27.8647C12.1516 27.9106 12.0773 27.9347 12.0019 27.9347C11.9264 27.9347 11.8521 27.9106 11.7895 27.8647C11.7267 27.8186 11.6786 27.7527 11.6533 27.6753L11.6531 27.6745L10.1054 22.9543C10.1053 22.9542 10.1053 22.954 10.1052 22.9539C9.74205 21.8426 9.12823 20.832 8.31204 20.003C7.49571 19.1738 6.49945 18.5491 5.40231 18.1793L0.755309 16.6072L0.754481 16.607C0.682285 16.5827 0.61804 16.5354 0.571812 16.4704C0.525506 16.4053 0.5 16.3261 0.5 16.244C0.5 16.1619 0.525507 16.0827 0.571812 16.0176C0.61804 15.9526 0.682285 15.9053 0.754481 15.881L0.755309 15.8807L5.40231 14.3087C6.49945 13.9389 7.49571 13.3141 8.31204 12.485C9.12822 11.6559 9.74204 10.6454 10.1052 9.53411C10.1053 9.53395 10.1053 9.53379 10.1054 9.53362L11.6531 4.81347ZM44.346 9.25005L44.3455 9.25024C43.5898 9.50705 42.9039 9.93838 42.3415 10.5096C41.7792 11.0808 41.3557 11.7763 41.1038 12.541L41.1036 12.5415L40.0736 15.6803C40.0734 15.6808 40.0732 15.6813 40.0731 15.6819C40.0666 15.6998 40.0554 15.714 40.0422 15.7236C40.0288 15.7333 40.0136 15.7379 39.9989 15.7379C39.9841 15.7379 39.969 15.7333 39.9555 15.7236C39.9424 15.714 39.9312 15.6998 39.9247 15.682C39.9245 15.6814 39.9243 15.6808 39.9241 15.6803L38.8941 12.5415L38.8939 12.541C38.642 11.7763 38.2185 11.0808 37.6562 10.5096C37.0938 9.93838 36.4079 9.50705 35.6522 9.25024L35.6519 9.25012L32.5658 8.20391C32.5653 8.20374 32.5648 8.20356 32.5643 8.20338C32.5503 8.19812 32.5369 8.1882 32.5266 8.1736C32.516 8.1584 32.5097 8.13929 32.5097 8.11895C32.5097 8.09861 32.516 8.0795 32.5266 8.0643C32.5369 8.04972 32.5503 8.03981 32.5643 8.03453C32.5648 8.03435 32.5653 8.03417 32.5658 8.034L35.6553 6.98799C35.6553 6.98798 35.6554 6.98796 35.6554 6.98795C37.1908 6.46956 38.39 5.24921 38.8982 3.69599L38.8983 3.69585L39.9241 0.557619C39.9243 0.557 39.9245 0.556385 39.9248 0.555774C39.9312 0.537983 39.9424 0.523826 39.9555 0.514346C39.969 0.504625 39.9841 0.5 39.9989 0.5C40.0136 0.5 40.0288 0.504623 40.0422 0.514346C40.0554 0.523873 40.0666 0.538122 40.073 0.556036C40.0732 0.556561 40.0734 0.557088 40.0736 0.557619L41.1035 3.69599C41.6117 5.24921 42.8109 6.46956 44.3463 6.98795C44.3464 6.98796 44.3464 6.98798 44.3464 6.98799L47.436 8.034C47.4365 8.03418 47.437 8.03436 47.4375 8.03455C47.4515 8.03982 47.4649 8.04973 47.4751 8.0643C47.4857 8.0795 47.492 8.09861 47.492 8.11895C47.492 8.13929 47.4857 8.1584 47.4751 8.1736C47.4649 8.18818 47.4515 8.19808 47.4375 8.20336C47.437 8.20355 47.4365 8.20373 47.436 8.20391L44.346 9.25005Z" fill="white" stroke="black"/>
</svg>
